<mxfile host="app.diagrams.net" agent="Mozilla/5.0 (Windows NT 10.0; Win64; x64) AppleWebKit/537.36 (KHTML, like Gecko) Chrome/132.0.0.0 Safari/537.36" version="26.0.6">
  <diagram id="C5RBs43oDa-KdzZeNtuy" name="Page-1">
    <mxGraphModel dx="5160" dy="2228" grid="1" gridSize="10" guides="1" tooltips="1" connect="1" arrows="1" fold="1" page="1" pageScale="1" pageWidth="1169" pageHeight="1654" math="0" shadow="0">
      <root>
        <mxCell id="WIyWlLk6GJQsqaUBKTNV-0" />
        <mxCell id="WIyWlLk6GJQsqaUBKTNV-1" parent="WIyWlLk6GJQsqaUBKTNV-0" />
        <mxCell id="amf6n_xccvMPIKheJyb7-0" value="FILLIMI" style="rounded=1;whiteSpace=wrap;html=1;arcSize=34;" vertex="1" parent="WIyWlLk6GJQsqaUBKTNV-1">
          <mxGeometry x="320" y="20" width="210" height="40" as="geometry" />
        </mxCell>
        <mxCell id="amf6n_xccvMPIKheJyb7-1" value="FUNDI" style="rounded=1;whiteSpace=wrap;html=1;arcSize=34;" vertex="1" parent="WIyWlLk6GJQsqaUBKTNV-1">
          <mxGeometry x="320" y="1050" width="210" height="40" as="geometry" />
        </mxCell>
        <mxCell id="amf6n_xccvMPIKheJyb7-2" value="" style="endArrow=classic;html=1;rounded=0;exitX=0.5;exitY=1;exitDx=0;exitDy=0;" edge="1" parent="WIyWlLk6GJQsqaUBKTNV-1" source="amf6n_xccvMPIKheJyb7-0">
          <mxGeometry width="50" height="50" relative="1" as="geometry">
            <mxPoint x="400" y="190" as="sourcePoint" />
            <mxPoint x="425" y="140" as="targetPoint" />
          </mxGeometry>
        </mxCell>
        <mxCell id="amf6n_xccvMPIKheJyb7-3" value="" style="edgeStyle=orthogonalEdgeStyle;rounded=0;orthogonalLoop=1;jettySize=auto;html=1;" edge="1" parent="WIyWlLk6GJQsqaUBKTNV-1" source="amf6n_xccvMPIKheJyb7-4" target="amf6n_xccvMPIKheJyb7-6">
          <mxGeometry relative="1" as="geometry" />
        </mxCell>
        <mxCell id="amf6n_xccvMPIKheJyb7-4" value="zgjedhja_lojtarit" style="verticalLabelPosition=middle;verticalAlign=middle;html=1;shape=trapezoid;perimeter=trapezoidPerimeter;whiteSpace=wrap;size=0.23;arcSize=10;flipV=1;labelPosition=center;align=center;" vertex="1" parent="WIyWlLk6GJQsqaUBKTNV-1">
          <mxGeometry x="320" y="90" width="210" height="60" as="geometry" />
        </mxCell>
        <mxCell id="amf6n_xccvMPIKheJyb7-5" value="" style="edgeStyle=orthogonalEdgeStyle;rounded=0;orthogonalLoop=1;jettySize=auto;html=1;" edge="1" parent="WIyWlLk6GJQsqaUBKTNV-1" source="amf6n_xccvMPIKheJyb7-6" target="amf6n_xccvMPIKheJyb7-8">
          <mxGeometry relative="1" as="geometry" />
        </mxCell>
        <mxCell id="amf6n_xccvMPIKheJyb7-6" value="RNG" style="rounded=0;whiteSpace=wrap;html=1;" vertex="1" parent="WIyWlLk6GJQsqaUBKTNV-1">
          <mxGeometry x="340" y="180" width="170" height="60" as="geometry" />
        </mxCell>
        <mxCell id="amf6n_xccvMPIKheJyb7-7" value="" style="edgeStyle=orthogonalEdgeStyle;rounded=0;orthogonalLoop=1;jettySize=auto;html=1;" edge="1" parent="WIyWlLk6GJQsqaUBKTNV-1" source="amf6n_xccvMPIKheJyb7-8" target="amf6n_xccvMPIKheJyb7-13">
          <mxGeometry relative="1" as="geometry" />
        </mxCell>
        <mxCell id="amf6n_xccvMPIKheJyb7-8" value="zgjedhja_PC=rand()%3+1" style="whiteSpace=wrap;html=1;rounded=0;" vertex="1" parent="WIyWlLk6GJQsqaUBKTNV-1">
          <mxGeometry x="340" y="270" width="170" height="60" as="geometry" />
        </mxCell>
        <mxCell id="amf6n_xccvMPIKheJyb7-9" value="" style="edgeStyle=orthogonalEdgeStyle;rounded=0;orthogonalLoop=1;jettySize=auto;html=1;" edge="1" parent="WIyWlLk6GJQsqaUBKTNV-1" source="amf6n_xccvMPIKheJyb7-13" target="amf6n_xccvMPIKheJyb7-18">
          <mxGeometry relative="1" as="geometry" />
        </mxCell>
        <mxCell id="amf6n_xccvMPIKheJyb7-10" value="PO" style="edgeLabel;html=1;align=center;verticalAlign=middle;resizable=0;points=[];" vertex="1" connectable="0" parent="amf6n_xccvMPIKheJyb7-9">
          <mxGeometry x="-0.31" y="1" relative="1" as="geometry">
            <mxPoint as="offset" />
          </mxGeometry>
        </mxCell>
        <mxCell id="amf6n_xccvMPIKheJyb7-11" value="" style="edgeStyle=orthogonalEdgeStyle;rounded=0;orthogonalLoop=1;jettySize=auto;html=1;" edge="1" parent="WIyWlLk6GJQsqaUBKTNV-1" source="amf6n_xccvMPIKheJyb7-13" target="amf6n_xccvMPIKheJyb7-25">
          <mxGeometry relative="1" as="geometry" />
        </mxCell>
        <mxCell id="amf6n_xccvMPIKheJyb7-12" value="JO" style="edgeLabel;html=1;align=center;verticalAlign=middle;resizable=0;points=[];" vertex="1" connectable="0" parent="amf6n_xccvMPIKheJyb7-11">
          <mxGeometry x="0.4165" y="1" relative="1" as="geometry">
            <mxPoint x="-14" y="1" as="offset" />
          </mxGeometry>
        </mxCell>
        <mxCell id="amf6n_xccvMPIKheJyb7-13" value="zgjedhja_lojtarit&amp;gt;0 &amp;amp;&amp;amp; zgjedhja_lojtarit&amp;lt;=3" style="rhombus;whiteSpace=wrap;html=1;rounded=0;" vertex="1" parent="WIyWlLk6GJQsqaUBKTNV-1">
          <mxGeometry x="260" y="370" width="330" height="120" as="geometry" />
        </mxCell>
        <mxCell id="amf6n_xccvMPIKheJyb7-14" value="" style="edgeStyle=orthogonalEdgeStyle;rounded=0;orthogonalLoop=1;jettySize=auto;html=1;" edge="1" parent="WIyWlLk6GJQsqaUBKTNV-1" source="amf6n_xccvMPIKheJyb7-18" target="amf6n_xccvMPIKheJyb7-23">
          <mxGeometry relative="1" as="geometry" />
        </mxCell>
        <mxCell id="amf6n_xccvMPIKheJyb7-15" value="JO" style="edgeLabel;html=1;align=center;verticalAlign=middle;resizable=0;points=[];" vertex="1" connectable="0" parent="amf6n_xccvMPIKheJyb7-14">
          <mxGeometry x="-0.3867" y="-1" relative="1" as="geometry">
            <mxPoint as="offset" />
          </mxGeometry>
        </mxCell>
        <mxCell id="amf6n_xccvMPIKheJyb7-16" value="" style="edgeStyle=orthogonalEdgeStyle;rounded=0;orthogonalLoop=1;jettySize=auto;html=1;" edge="1" parent="WIyWlLk6GJQsqaUBKTNV-1" source="amf6n_xccvMPIKheJyb7-18" target="amf6n_xccvMPIKheJyb7-24">
          <mxGeometry relative="1" as="geometry" />
        </mxCell>
        <mxCell id="amf6n_xccvMPIKheJyb7-17" value="PO" style="edgeLabel;html=1;align=center;verticalAlign=middle;resizable=0;points=[];" vertex="1" connectable="0" parent="amf6n_xccvMPIKheJyb7-16">
          <mxGeometry x="0.0473" relative="1" as="geometry">
            <mxPoint as="offset" />
          </mxGeometry>
        </mxCell>
        <mxCell id="amf6n_xccvMPIKheJyb7-18" value="zgjedhja_PC == zgjedhja_lojtarit" style="rhombus;whiteSpace=wrap;html=1;rounded=0;" vertex="1" parent="WIyWlLk6GJQsqaUBKTNV-1">
          <mxGeometry x="260" y="530" width="330" height="110" as="geometry" />
        </mxCell>
        <mxCell id="amf6n_xccvMPIKheJyb7-19" value="" style="edgeStyle=orthogonalEdgeStyle;rounded=0;orthogonalLoop=1;jettySize=auto;html=1;" edge="1" parent="WIyWlLk6GJQsqaUBKTNV-1" source="amf6n_xccvMPIKheJyb7-23" target="amf6n_xccvMPIKheJyb7-27">
          <mxGeometry relative="1" as="geometry" />
        </mxCell>
        <mxCell id="amf6n_xccvMPIKheJyb7-20" value="PO" style="edgeLabel;html=1;align=center;verticalAlign=middle;resizable=0;points=[];" vertex="1" connectable="0" parent="amf6n_xccvMPIKheJyb7-19">
          <mxGeometry x="-0.2914" y="-1" relative="1" as="geometry">
            <mxPoint as="offset" />
          </mxGeometry>
        </mxCell>
        <mxCell id="amf6n_xccvMPIKheJyb7-21" value="" style="edgeStyle=orthogonalEdgeStyle;rounded=0;orthogonalLoop=1;jettySize=auto;html=1;" edge="1" parent="WIyWlLk6GJQsqaUBKTNV-1" source="amf6n_xccvMPIKheJyb7-23" target="amf6n_xccvMPIKheJyb7-28">
          <mxGeometry relative="1" as="geometry" />
        </mxCell>
        <mxCell id="amf6n_xccvMPIKheJyb7-22" value="JO" style="edgeLabel;html=1;align=center;verticalAlign=middle;resizable=0;points=[];" vertex="1" connectable="0" parent="amf6n_xccvMPIKheJyb7-21">
          <mxGeometry x="0.0769" y="-2" relative="1" as="geometry">
            <mxPoint as="offset" />
          </mxGeometry>
        </mxCell>
        <mxCell id="amf6n_xccvMPIKheJyb7-23" value="&lt;font style=&quot;font-size: 9px;&quot;&gt;zgjedhja_lojarit == 1 &amp;amp;&amp;amp; zgjedhja_pc == 3&amp;nbsp;&lt;/font&gt;&lt;div&gt;&lt;font style=&quot;font-size: 9px;&quot;&gt;||&lt;br&gt;&lt;/font&gt;&lt;div&gt;&lt;div&gt;&lt;font style=&quot;font-size: 9px;&quot;&gt;zgjedhja_lojarit == 2 &amp;amp;&amp;amp; zgjedhja_pc == 1&lt;/font&gt;&lt;/div&gt;&lt;div&gt;&lt;font style=&quot;font-size: 9px;&quot;&gt;||&lt;/font&gt;&lt;/div&gt;&lt;div&gt;&lt;font style=&quot;font-size: 9px;&quot;&gt;zgjedhja_lojarit == 3 &amp;amp;&amp;amp; zgjedhja_pc == 2&lt;/font&gt;&lt;/div&gt;&lt;/div&gt;&lt;/div&gt;" style="rhombus;whiteSpace=wrap;html=1;rounded=0;" vertex="1" parent="WIyWlLk6GJQsqaUBKTNV-1">
          <mxGeometry x="240" y="690" width="370" height="130" as="geometry" />
        </mxCell>
        <mxCell id="amf6n_xccvMPIKheJyb7-24" value="Barazim!" style="shape=trapezoid;perimeter=trapezoidPerimeter;whiteSpace=wrap;html=1;fixedSize=1;rounded=0;" vertex="1" parent="WIyWlLk6GJQsqaUBKTNV-1">
          <mxGeometry x="20" y="555" width="160" height="60" as="geometry" />
        </mxCell>
        <mxCell id="amf6n_xccvMPIKheJyb7-25" value="Zgjedhje&amp;nbsp; jovalide" style="whiteSpace=wrap;html=1;rounded=0;" vertex="1" parent="WIyWlLk6GJQsqaUBKTNV-1">
          <mxGeometry x="690" y="400" width="120" height="60" as="geometry" />
        </mxCell>
        <mxCell id="amf6n_xccvMPIKheJyb7-26" value="" style="edgeStyle=orthogonalEdgeStyle;rounded=0;orthogonalLoop=1;jettySize=auto;html=1;" edge="1" parent="WIyWlLk6GJQsqaUBKTNV-1" source="amf6n_xccvMPIKheJyb7-27" target="amf6n_xccvMPIKheJyb7-1">
          <mxGeometry relative="1" as="geometry" />
        </mxCell>
        <mxCell id="amf6n_xccvMPIKheJyb7-27" value="Ju fituat!" style="shape=trapezoid;perimeter=trapezoidPerimeter;whiteSpace=wrap;html=1;fixedSize=1;rounded=0;" vertex="1" parent="WIyWlLk6GJQsqaUBKTNV-1">
          <mxGeometry x="325" y="880" width="200" height="55" as="geometry" />
        </mxCell>
        <mxCell id="amf6n_xccvMPIKheJyb7-28" value="Kompjuteri fitoi!" style="shape=trapezoid;perimeter=trapezoidPerimeter;whiteSpace=wrap;html=1;fixedSize=1;rounded=0;" vertex="1" parent="WIyWlLk6GJQsqaUBKTNV-1">
          <mxGeometry x="665" y="725" width="155" height="60" as="geometry" />
        </mxCell>
        <mxCell id="amf6n_xccvMPIKheJyb7-29" value="" style="endArrow=classic;html=1;rounded=0;" edge="1" parent="WIyWlLk6GJQsqaUBKTNV-1">
          <mxGeometry width="50" height="50" relative="1" as="geometry">
            <mxPoint x="745" y="1020" as="sourcePoint" />
            <mxPoint x="425" y="1020" as="targetPoint" />
          </mxGeometry>
        </mxCell>
        <mxCell id="amf6n_xccvMPIKheJyb7-30" value="" style="endArrow=none;html=1;rounded=0;entryX=0.5;entryY=1;entryDx=0;entryDy=0;" edge="1" parent="WIyWlLk6GJQsqaUBKTNV-1" target="amf6n_xccvMPIKheJyb7-28">
          <mxGeometry width="50" height="50" relative="1" as="geometry">
            <mxPoint x="743" y="1020" as="sourcePoint" />
            <mxPoint x="740" y="840" as="targetPoint" />
          </mxGeometry>
        </mxCell>
        <mxCell id="amf6n_xccvMPIKheJyb7-31" value="" style="endArrow=none;html=1;rounded=0;entryX=1;entryY=0.5;entryDx=0;entryDy=0;" edge="1" parent="WIyWlLk6GJQsqaUBKTNV-1" target="amf6n_xccvMPIKheJyb7-25">
          <mxGeometry width="50" height="50" relative="1" as="geometry">
            <mxPoint x="840" y="890" as="sourcePoint" />
            <mxPoint x="840" y="480" as="targetPoint" />
            <Array as="points">
              <mxPoint x="840" y="430" />
            </Array>
          </mxGeometry>
        </mxCell>
        <mxCell id="amf6n_xccvMPIKheJyb7-32" value="" style="endArrow=classic;html=1;rounded=0;" edge="1" parent="WIyWlLk6GJQsqaUBKTNV-1">
          <mxGeometry width="50" height="50" relative="1" as="geometry">
            <mxPoint x="840" y="890" as="sourcePoint" />
            <mxPoint x="740" y="890" as="targetPoint" />
            <Array as="points">
              <mxPoint x="790" y="890" />
            </Array>
          </mxGeometry>
        </mxCell>
        <mxCell id="amf6n_xccvMPIKheJyb7-33" value="" style="endArrow=classic;html=1;rounded=0;exitX=0.5;exitY=1;exitDx=0;exitDy=0;" edge="1" parent="WIyWlLk6GJQsqaUBKTNV-1" source="amf6n_xccvMPIKheJyb7-24">
          <mxGeometry width="50" height="50" relative="1" as="geometry">
            <mxPoint x="560" y="900" as="sourcePoint" />
            <mxPoint x="430" y="1020" as="targetPoint" />
            <Array as="points">
              <mxPoint x="110" y="1020" />
            </Array>
          </mxGeometry>
        </mxCell>
        <mxCell id="amf6n_xccvMPIKheJyb7-34" value="" style="rounded=0;html=1;jettySize=auto;orthogonalLoop=1;fontSize=11;endArrow=block;endFill=0;endSize=8;strokeWidth=1;shadow=0;labelBackgroundColor=none;edgeStyle=orthogonalEdgeStyle;" edge="1" parent="WIyWlLk6GJQsqaUBKTNV-1">
          <mxGeometry relative="1" as="geometry">
            <mxPoint x="1420" y="110" as="sourcePoint" />
            <mxPoint x="1420" y="160.00000000000023" as="targetPoint" />
          </mxGeometry>
        </mxCell>
        <mxCell id="amf6n_xccvMPIKheJyb7-35" value="Yes" style="rounded=0;html=1;jettySize=auto;orthogonalLoop=1;fontSize=11;endArrow=block;endFill=0;endSize=8;strokeWidth=1;shadow=0;labelBackgroundColor=none;edgeStyle=orthogonalEdgeStyle;" edge="1" parent="WIyWlLk6GJQsqaUBKTNV-1">
          <mxGeometry x="1" y="98" relative="1" as="geometry">
            <mxPoint x="-8" y="38" as="offset" />
            <mxPoint x="1440" y="210" as="sourcePoint" />
            <mxPoint x="1420" y="260.0000000000002" as="targetPoint" />
          </mxGeometry>
        </mxCell>
        <mxCell id="amf6n_xccvMPIKheJyb7-36" value="&amp;nbsp; &amp;nbsp;Start the game." style="ellipse;whiteSpace=wrap;html=1;" vertex="1" parent="WIyWlLk6GJQsqaUBKTNV-1">
          <mxGeometry x="1360" y="30" width="120" height="80" as="geometry" />
        </mxCell>
        <mxCell id="amf6n_xccvMPIKheJyb7-37" value="&lt;span data-end=&quot;485&quot; data-start=&quot;461&quot;&gt;Load words from file&lt;/span&gt;" style="rounded=0;whiteSpace=wrap;html=1;" vertex="1" parent="WIyWlLk6GJQsqaUBKTNV-1">
          <mxGeometry x="1365" y="160" width="120" height="60" as="geometry" />
        </mxCell>
        <mxCell id="amf6n_xccvMPIKheJyb7-38" style="edgeStyle=orthogonalEdgeStyle;rounded=0;orthogonalLoop=1;jettySize=auto;html=1;entryX=0;entryY=0.25;entryDx=0;entryDy=0;" edge="1" parent="WIyWlLk6GJQsqaUBKTNV-1" source="amf6n_xccvMPIKheJyb7-39">
          <mxGeometry relative="1" as="geometry">
            <mxPoint x="1570" y="310" as="targetPoint" />
          </mxGeometry>
        </mxCell>
        <mxCell id="amf6n_xccvMPIKheJyb7-39" value="&lt;span data-end=&quot;701&quot; data-start=&quot;682&quot;&gt;Is file loaded?&lt;/span&gt;" style="rhombus;whiteSpace=wrap;html=1;" vertex="1" parent="WIyWlLk6GJQsqaUBKTNV-1">
          <mxGeometry x="1362.5" y="260" width="117.5" height="110" as="geometry" />
        </mxCell>
        <mxCell id="amf6n_xccvMPIKheJyb7-40" style="edgeStyle=orthogonalEdgeStyle;rounded=0;orthogonalLoop=1;jettySize=auto;html=1;exitX=0.5;exitY=1;exitDx=0;exitDy=0;" edge="1" parent="WIyWlLk6GJQsqaUBKTNV-1" source="amf6n_xccvMPIKheJyb7-41" target="amf6n_xccvMPIKheJyb7-44">
          <mxGeometry relative="1" as="geometry">
            <mxPoint x="1630.148148148148" y="390.0000000000001" as="targetPoint" />
          </mxGeometry>
        </mxCell>
        <mxCell id="amf6n_xccvMPIKheJyb7-41" value="Select Random Word" style="rounded=0;whiteSpace=wrap;html=1;" vertex="1" parent="WIyWlLk6GJQsqaUBKTNV-1">
          <mxGeometry x="1570" y="285" width="120" height="60" as="geometry" />
        </mxCell>
        <mxCell id="amf6n_xccvMPIKheJyb7-42" value="No" style="text;html=1;align=center;verticalAlign=middle;resizable=0;points=[];autosize=1;strokeColor=none;fillColor=none;" vertex="1" parent="WIyWlLk6GJQsqaUBKTNV-1">
          <mxGeometry x="1300" y="270" width="40" height="30" as="geometry" />
        </mxCell>
        <mxCell id="amf6n_xccvMPIKheJyb7-43" value="Game over" style="ellipse;whiteSpace=wrap;html=1;" vertex="1" parent="WIyWlLk6GJQsqaUBKTNV-1">
          <mxGeometry x="1665" y="1490" width="120" height="80" as="geometry" />
        </mxCell>
        <mxCell id="amf6n_xccvMPIKheJyb7-44" value="Initialize game variables" style="rounded=0;whiteSpace=wrap;html=1;" vertex="1" parent="WIyWlLk6GJQsqaUBKTNV-1">
          <mxGeometry x="1569.9981481481482" y="380.0000000000001" width="120" height="60" as="geometry" />
        </mxCell>
        <mxCell id="amf6n_xccvMPIKheJyb7-45" value="Display word" style="shape=parallelogram;perimeter=parallelogramPerimeter;whiteSpace=wrap;html=1;fixedSize=1;" vertex="1" parent="WIyWlLk6GJQsqaUBKTNV-1">
          <mxGeometry x="1580" y="580" width="150" height="70" as="geometry" />
        </mxCell>
        <mxCell id="amf6n_xccvMPIKheJyb7-46" style="edgeStyle=orthogonalEdgeStyle;rounded=0;orthogonalLoop=1;jettySize=auto;html=1;exitX=0.5;exitY=1;exitDx=0;exitDy=0;entryX=0.582;entryY=-0.012;entryDx=0;entryDy=0;entryPerimeter=0;" edge="1" parent="WIyWlLk6GJQsqaUBKTNV-1" source="amf6n_xccvMPIKheJyb7-44">
          <mxGeometry relative="1" as="geometry">
            <mxPoint x="1631.48" y="469.1600000000001" as="targetPoint" />
          </mxGeometry>
        </mxCell>
        <mxCell id="amf6n_xccvMPIKheJyb7-47" style="edgeStyle=orthogonalEdgeStyle;rounded=0;orthogonalLoop=1;jettySize=auto;html=1;exitX=0.5;exitY=1;exitDx=0;exitDy=0;entryX=0.5;entryY=0;entryDx=0;entryDy=0;" edge="1" parent="WIyWlLk6GJQsqaUBKTNV-1" source="amf6n_xccvMPIKheJyb7-48" target="amf6n_xccvMPIKheJyb7-51">
          <mxGeometry relative="1" as="geometry" />
        </mxCell>
        <mxCell id="amf6n_xccvMPIKheJyb7-48" value="&lt;span data-end=&quot;1879&quot; data-start=&quot;1851&quot;&gt;Guess letter&amp;nbsp;&lt;/span&gt;&lt;div&gt;&lt;span data-end=&quot;1879&quot; data-start=&quot;1851&quot;&gt;or use hint&lt;/span&gt;&lt;/div&gt;" style="shape=parallelogram;perimeter=parallelogramPerimeter;whiteSpace=wrap;html=1;fixedSize=1;" vertex="1" parent="WIyWlLk6GJQsqaUBKTNV-1">
          <mxGeometry x="1570" y="670" width="150" height="70" as="geometry" />
        </mxCell>
        <mxCell id="amf6n_xccvMPIKheJyb7-49" style="edgeStyle=orthogonalEdgeStyle;rounded=0;orthogonalLoop=1;jettySize=auto;html=1;exitX=0.5;exitY=1;exitDx=0;exitDy=0;entryX=0.636;entryY=0.024;entryDx=0;entryDy=0;entryPerimeter=0;" edge="1" parent="WIyWlLk6GJQsqaUBKTNV-1" source="amf6n_xccvMPIKheJyb7-45" target="amf6n_xccvMPIKheJyb7-48">
          <mxGeometry relative="1" as="geometry" />
        </mxCell>
        <mxCell id="amf6n_xccvMPIKheJyb7-50" style="edgeStyle=orthogonalEdgeStyle;rounded=0;orthogonalLoop=1;jettySize=auto;html=1;exitX=0.5;exitY=1;exitDx=0;exitDy=0;entryX=0.5;entryY=0;entryDx=0;entryDy=0;" edge="1" parent="WIyWlLk6GJQsqaUBKTNV-1" source="amf6n_xccvMPIKheJyb7-51" target="amf6n_xccvMPIKheJyb7-56">
          <mxGeometry relative="1" as="geometry" />
        </mxCell>
        <mxCell id="amf6n_xccvMPIKheJyb7-51" value="&#xa;Is hint?&#xa;&#xa;" style="rhombus;whiteSpace=wrap;html=1;" vertex="1" parent="WIyWlLk6GJQsqaUBKTNV-1">
          <mxGeometry x="1585" y="758" width="110" height="110" as="geometry" />
        </mxCell>
        <mxCell id="amf6n_xccvMPIKheJyb7-52" value="Yes" style="text;html=1;align=center;verticalAlign=middle;resizable=0;points=[];autosize=1;strokeColor=none;fillColor=none;" vertex="1" parent="WIyWlLk6GJQsqaUBKTNV-1">
          <mxGeometry x="1700" y="790" width="40" height="30" as="geometry" />
        </mxCell>
        <mxCell id="amf6n_xccvMPIKheJyb7-53" value="&lt;span style=&quot;&quot; data-end=&quot;2158&quot; data-start=&quot;2142&quot;&gt;Provide Hint&lt;/span&gt;." style="rounded=0;whiteSpace=wrap;html=1;" vertex="1" parent="WIyWlLk6GJQsqaUBKTNV-1">
          <mxGeometry x="1760" y="790" width="120" height="60" as="geometry" />
        </mxCell>
        <mxCell id="amf6n_xccvMPIKheJyb7-54" value="No" style="text;html=1;align=center;verticalAlign=middle;resizable=0;points=[];autosize=1;strokeColor=none;fillColor=none;" vertex="1" parent="WIyWlLk6GJQsqaUBKTNV-1">
          <mxGeometry x="1600" y="880" width="40" height="30" as="geometry" />
        </mxCell>
        <mxCell id="amf6n_xccvMPIKheJyb7-55" style="edgeStyle=orthogonalEdgeStyle;rounded=0;orthogonalLoop=1;jettySize=auto;html=1;exitX=0.5;exitY=1;exitDx=0;exitDy=0;entryX=0.5;entryY=0;entryDx=0;entryDy=0;" edge="1" parent="WIyWlLk6GJQsqaUBKTNV-1" source="amf6n_xccvMPIKheJyb7-56" target="amf6n_xccvMPIKheJyb7-59">
          <mxGeometry relative="1" as="geometry" />
        </mxCell>
        <mxCell id="amf6n_xccvMPIKheJyb7-56" value="&lt;div&gt;Guess Letter&lt;/div&gt;" style="rounded=0;whiteSpace=wrap;html=1;" vertex="1" parent="WIyWlLk6GJQsqaUBKTNV-1">
          <mxGeometry x="1580" y="920" width="120" height="60" as="geometry" />
        </mxCell>
        <mxCell id="amf6n_xccvMPIKheJyb7-57" style="edgeStyle=orthogonalEdgeStyle;rounded=0;orthogonalLoop=1;jettySize=auto;html=1;exitX=1;exitY=0.5;exitDx=0;exitDy=0;entryX=0;entryY=0.5;entryDx=0;entryDy=0;" edge="1" parent="WIyWlLk6GJQsqaUBKTNV-1" source="amf6n_xccvMPIKheJyb7-59" target="amf6n_xccvMPIKheJyb7-61">
          <mxGeometry relative="1" as="geometry" />
        </mxCell>
        <mxCell id="amf6n_xccvMPIKheJyb7-58" style="edgeStyle=orthogonalEdgeStyle;rounded=0;orthogonalLoop=1;jettySize=auto;html=1;exitX=0.5;exitY=1;exitDx=0;exitDy=0;entryX=1;entryY=1;entryDx=0;entryDy=0;" edge="1" parent="WIyWlLk6GJQsqaUBKTNV-1" source="amf6n_xccvMPIKheJyb7-59" target="amf6n_xccvMPIKheJyb7-64">
          <mxGeometry relative="1" as="geometry" />
        </mxCell>
        <mxCell id="amf6n_xccvMPIKheJyb7-59" value="Is guess correct?" style="rhombus;whiteSpace=wrap;html=1;" vertex="1" parent="WIyWlLk6GJQsqaUBKTNV-1">
          <mxGeometry x="1580" y="1010" width="120" height="110" as="geometry" />
        </mxCell>
        <mxCell id="amf6n_xccvMPIKheJyb7-60" style="edgeStyle=orthogonalEdgeStyle;rounded=0;orthogonalLoop=1;jettySize=auto;html=1;exitX=0.5;exitY=1;exitDx=0;exitDy=0;entryX=0.5;entryY=0;entryDx=0;entryDy=0;" edge="1" parent="WIyWlLk6GJQsqaUBKTNV-1" source="amf6n_xccvMPIKheJyb7-61" target="amf6n_xccvMPIKheJyb7-71">
          <mxGeometry relative="1" as="geometry" />
        </mxCell>
        <mxCell id="amf6n_xccvMPIKheJyb7-61" value="Update guessed letters" style="rounded=0;whiteSpace=wrap;html=1;" vertex="1" parent="WIyWlLk6GJQsqaUBKTNV-1">
          <mxGeometry x="1760" y="1035" width="120" height="65" as="geometry" />
        </mxCell>
        <mxCell id="amf6n_xccvMPIKheJyb7-62" value="Yes" style="text;html=1;align=center;verticalAlign=middle;resizable=0;points=[];autosize=1;strokeColor=none;fillColor=none;" vertex="1" parent="WIyWlLk6GJQsqaUBKTNV-1">
          <mxGeometry x="1710" y="1040" width="40" height="30" as="geometry" />
        </mxCell>
        <mxCell id="amf6n_xccvMPIKheJyb7-63" style="edgeStyle=orthogonalEdgeStyle;rounded=0;orthogonalLoop=1;jettySize=auto;html=1;exitX=0.5;exitY=0;exitDx=0;exitDy=0;entryX=0;entryY=0.5;entryDx=0;entryDy=0;" edge="1" parent="WIyWlLk6GJQsqaUBKTNV-1">
          <mxGeometry relative="1" as="geometry">
            <mxPoint x="1549.96" y="539.9600000000002" as="targetPoint" />
            <mxPoint x="1379.96" y="1069.96" as="sourcePoint" />
            <Array as="points">
              <mxPoint x="1379.96" y="1070.96" />
              <mxPoint x="1549.96" y="1070.96" />
            </Array>
          </mxGeometry>
        </mxCell>
        <mxCell id="amf6n_xccvMPIKheJyb7-64" value="Decrease attempts" style="rounded=0;whiteSpace=wrap;html=1;" vertex="1" parent="WIyWlLk6GJQsqaUBKTNV-1">
          <mxGeometry x="1330" y="1035" width="120" height="60" as="geometry" />
        </mxCell>
        <mxCell id="amf6n_xccvMPIKheJyb7-65" value="No" style="text;html=1;align=center;verticalAlign=middle;resizable=0;points=[];autosize=1;strokeColor=none;fillColor=none;" vertex="1" parent="WIyWlLk6GJQsqaUBKTNV-1">
          <mxGeometry x="1500" y="1110" width="40" height="30" as="geometry" />
        </mxCell>
        <mxCell id="amf6n_xccvMPIKheJyb7-66" value="Display Hangman" style="shape=parallelogram;perimeter=parallelogramPerimeter;whiteSpace=wrap;html=1;fixedSize=1;" vertex="1" parent="WIyWlLk6GJQsqaUBKTNV-1">
          <mxGeometry x="1530" y="470" width="140" height="70" as="geometry" />
        </mxCell>
        <mxCell id="amf6n_xccvMPIKheJyb7-67" style="edgeStyle=orthogonalEdgeStyle;rounded=0;orthogonalLoop=1;jettySize=auto;html=1;exitX=1;exitY=0.5;exitDx=0;exitDy=0;entryX=-0.009;entryY=0.371;entryDx=0;entryDy=0;entryPerimeter=0;" edge="1" parent="WIyWlLk6GJQsqaUBKTNV-1" source="amf6n_xccvMPIKheJyb7-51" target="amf6n_xccvMPIKheJyb7-53">
          <mxGeometry relative="1" as="geometry" />
        </mxCell>
        <mxCell id="amf6n_xccvMPIKheJyb7-68" style="edgeStyle=orthogonalEdgeStyle;rounded=0;orthogonalLoop=1;jettySize=auto;html=1;exitX=0.75;exitY=1;exitDx=0;exitDy=0;entryX=0.367;entryY=-0.009;entryDx=0;entryDy=0;entryPerimeter=0;" edge="1" parent="WIyWlLk6GJQsqaUBKTNV-1" source="amf6n_xccvMPIKheJyb7-66" target="amf6n_xccvMPIKheJyb7-45">
          <mxGeometry relative="1" as="geometry" />
        </mxCell>
        <mxCell id="amf6n_xccvMPIKheJyb7-69" style="edgeStyle=orthogonalEdgeStyle;rounded=0;orthogonalLoop=1;jettySize=auto;html=1;exitX=1;exitY=0.5;exitDx=0;exitDy=0;" edge="1" parent="WIyWlLk6GJQsqaUBKTNV-1" source="amf6n_xccvMPIKheJyb7-71">
          <mxGeometry relative="1" as="geometry">
            <mxPoint x="1960" y="1191" as="targetPoint" />
          </mxGeometry>
        </mxCell>
        <mxCell id="amf6n_xccvMPIKheJyb7-70" style="edgeStyle=orthogonalEdgeStyle;rounded=0;orthogonalLoop=1;jettySize=auto;html=1;exitX=0.5;exitY=1;exitDx=0;exitDy=0;" edge="1" parent="WIyWlLk6GJQsqaUBKTNV-1" source="amf6n_xccvMPIKheJyb7-71" target="amf6n_xccvMPIKheJyb7-74">
          <mxGeometry relative="1" as="geometry">
            <mxPoint x="1820" y="1329.9999999999998" as="targetPoint" />
          </mxGeometry>
        </mxCell>
        <mxCell id="amf6n_xccvMPIKheJyb7-71" value="Is Word Guessed?" style="rhombus;whiteSpace=wrap;html=1;" vertex="1" parent="WIyWlLk6GJQsqaUBKTNV-1">
          <mxGeometry x="1755" y="1140" width="130" height="102.5" as="geometry" />
        </mxCell>
        <mxCell id="amf6n_xccvMPIKheJyb7-72" value="Yes" style="text;html=1;align=center;verticalAlign=middle;resizable=0;points=[];autosize=1;strokeColor=none;fillColor=none;" vertex="1" parent="WIyWlLk6GJQsqaUBKTNV-1">
          <mxGeometry x="1900" y="1160" width="40" height="30" as="geometry" />
        </mxCell>
        <mxCell id="amf6n_xccvMPIKheJyb7-73" value="You win" style="rounded=0;whiteSpace=wrap;html=1;" vertex="1" parent="WIyWlLk6GJQsqaUBKTNV-1">
          <mxGeometry x="1960" y="1160" width="120" height="60" as="geometry" />
        </mxCell>
        <mxCell id="amf6n_xccvMPIKheJyb7-74" value="&lt;span style=&quot;&quot; data-end=&quot;3490&quot; data-start=&quot;3472&quot;&gt;Attempts Left?&lt;/span&gt;." style="rhombus;whiteSpace=wrap;html=1;" vertex="1" parent="WIyWlLk6GJQsqaUBKTNV-1">
          <mxGeometry x="1770" y="1300" width="100" height="90" as="geometry" />
        </mxCell>
        <mxCell id="amf6n_xccvMPIKheJyb7-75" value="Yes" style="text;html=1;align=center;verticalAlign=middle;resizable=0;points=[];autosize=1;strokeColor=none;fillColor=none;" vertex="1" parent="WIyWlLk6GJQsqaUBKTNV-1">
          <mxGeometry x="1900" y="1318" width="40" height="30" as="geometry" />
        </mxCell>
        <mxCell id="amf6n_xccvMPIKheJyb7-76" value="" style="endArrow=none;html=1;rounded=0;" edge="1" parent="WIyWlLk6GJQsqaUBKTNV-1">
          <mxGeometry width="50" height="50" relative="1" as="geometry">
            <mxPoint x="2210" y="1348" as="sourcePoint" />
            <mxPoint x="2210" y="505" as="targetPoint" />
          </mxGeometry>
        </mxCell>
        <mxCell id="amf6n_xccvMPIKheJyb7-77" value="" style="endArrow=none;html=1;rounded=0;exitX=1;exitY=0.5;exitDx=0;exitDy=0;" edge="1" parent="WIyWlLk6GJQsqaUBKTNV-1" source="amf6n_xccvMPIKheJyb7-74">
          <mxGeometry width="50" height="50" relative="1" as="geometry">
            <mxPoint x="1980" y="1330" as="sourcePoint" />
            <mxPoint x="2210" y="1345" as="targetPoint" />
          </mxGeometry>
        </mxCell>
        <mxCell id="amf6n_xccvMPIKheJyb7-78" value="" style="endArrow=classic;html=1;rounded=0;" edge="1" parent="WIyWlLk6GJQsqaUBKTNV-1" target="amf6n_xccvMPIKheJyb7-66">
          <mxGeometry width="50" height="50" relative="1" as="geometry">
            <mxPoint x="2210" y="505" as="sourcePoint" />
            <mxPoint x="2030" y="450" as="targetPoint" />
          </mxGeometry>
        </mxCell>
        <mxCell id="amf6n_xccvMPIKheJyb7-79" value="" style="endArrow=none;html=1;rounded=0;entryX=0;entryY=0.5;entryDx=0;entryDy=0;" edge="1" parent="WIyWlLk6GJQsqaUBKTNV-1" target="amf6n_xccvMPIKheJyb7-39">
          <mxGeometry width="50" height="50" relative="1" as="geometry">
            <mxPoint x="1280" y="315" as="sourcePoint" />
            <mxPoint x="1330" y="310" as="targetPoint" />
          </mxGeometry>
        </mxCell>
        <mxCell id="amf6n_xccvMPIKheJyb7-80" value="" style="endArrow=none;html=1;rounded=0;" edge="1" parent="WIyWlLk6GJQsqaUBKTNV-1">
          <mxGeometry width="50" height="50" relative="1" as="geometry">
            <mxPoint x="1280" y="1530" as="sourcePoint" />
            <mxPoint x="1280" y="310" as="targetPoint" />
          </mxGeometry>
        </mxCell>
        <mxCell id="amf6n_xccvMPIKheJyb7-81" value="" style="endArrow=classic;html=1;rounded=0;" edge="1" parent="WIyWlLk6GJQsqaUBKTNV-1" target="amf6n_xccvMPIKheJyb7-43">
          <mxGeometry width="50" height="50" relative="1" as="geometry">
            <mxPoint x="1280" y="1530" as="sourcePoint" />
            <mxPoint x="1370" y="1480" as="targetPoint" />
          </mxGeometry>
        </mxCell>
        <mxCell id="amf6n_xccvMPIKheJyb7-82" value="" style="endArrow=none;html=1;rounded=0;entryX=0;entryY=0.5;entryDx=0;entryDy=0;" edge="1" parent="WIyWlLk6GJQsqaUBKTNV-1" target="amf6n_xccvMPIKheJyb7-74">
          <mxGeometry width="50" height="50" relative="1" as="geometry">
            <mxPoint x="1710" y="1350" as="sourcePoint" />
            <mxPoint x="1640" y="1350" as="targetPoint" />
          </mxGeometry>
        </mxCell>
        <mxCell id="amf6n_xccvMPIKheJyb7-83" value="" style="endArrow=classic;html=1;rounded=0;entryX=0.375;entryY=-0.002;entryDx=0;entryDy=0;entryPerimeter=0;" edge="1" parent="WIyWlLk6GJQsqaUBKTNV-1" target="amf6n_xccvMPIKheJyb7-43">
          <mxGeometry width="50" height="50" relative="1" as="geometry">
            <mxPoint x="1710" y="1350" as="sourcePoint" />
            <mxPoint x="1660" y="1480" as="targetPoint" />
          </mxGeometry>
        </mxCell>
        <mxCell id="amf6n_xccvMPIKheJyb7-84" value="No" style="text;html=1;align=center;verticalAlign=middle;resizable=0;points=[];autosize=1;strokeColor=none;fillColor=none;" vertex="1" parent="WIyWlLk6GJQsqaUBKTNV-1">
          <mxGeometry x="1715" y="1318" width="40" height="30" as="geometry" />
        </mxCell>
        <mxCell id="amf6n_xccvMPIKheJyb7-85" value="" style="endArrow=none;html=1;rounded=0;entryX=0.5;entryY=1;entryDx=0;entryDy=0;" edge="1" parent="WIyWlLk6GJQsqaUBKTNV-1" target="amf6n_xccvMPIKheJyb7-73">
          <mxGeometry width="50" height="50" relative="1" as="geometry">
            <mxPoint x="2020" y="1520" as="sourcePoint" />
            <mxPoint x="1640" y="1230" as="targetPoint" />
          </mxGeometry>
        </mxCell>
        <mxCell id="amf6n_xccvMPIKheJyb7-86" value="" style="endArrow=classic;html=1;rounded=0;entryX=0.955;entryY=0.351;entryDx=0;entryDy=0;entryPerimeter=0;" edge="1" parent="WIyWlLk6GJQsqaUBKTNV-1" target="amf6n_xccvMPIKheJyb7-43">
          <mxGeometry width="50" height="50" relative="1" as="geometry">
            <mxPoint x="2020" y="1520" as="sourcePoint" />
            <mxPoint x="1640" y="1230" as="targetPoint" />
          </mxGeometry>
        </mxCell>
      </root>
    </mxGraphModel>
  </diagram>
</mxfile>
